<svg xmlns="http://www.w3.org/2000/svg" viewBox="-25 -20 300 270" width="300" height="270">
  <defs>
    <clipPath id="screenClip">
      <rect x="18" y="38" width="158" height="88" rx="2"/>
    </clipPath>
    <filter id="glow">
      <feGaussianBlur stdDeviation="1.5" result="coloredBlur"/>
      <feMerge>
        <feMergeNode in="coloredBlur"/>
        <feMergeNode in="SourceGraphic"/>
      </feMerge>
    </filter>
    <linearGradient id="metal-grad" x1="0%" y1="0%" x2="0%" y2="100%">
      <stop offset="0%" stop-color="#fff"/>
      <stop offset="100%" stop-color="#ccc"/>
    </linearGradient>
    <linearGradient id="fire-grad" x1="0%" y1="0%" x2="0%" y2="100%">
      <stop offset="0%" stop-color="#00ffff"/> 
      <stop offset="100%" stop-color="#0099dd" stop-opacity="0"/>
    </linearGradient>
  </defs>

  <style>
    .hover-body { animation: hoverConnect 2.8s ease-in-out infinite; }
    @keyframes hoverConnect {
      0%, 100% { transform: translateY(0px); }
      50%      { transform: translateY(-3px); }
    }

    .flame { animation: thrust 0.6s ease-in-out infinite alternate; transform-origin: center top; }
    @keyframes thrust {
      0%   { transform: scaleY(0.7); opacity: 0.3; }
      100% { transform: scaleY(1.0); opacity: 0.7; }
    }

    .handle {
      animation: handleBreathe 3s ease-in-out infinite;
      transform-origin: 120px 28px;
    }
    @keyframes handleBreathe {
      0%, 100% { transform: translateY(0); }
      50%      { transform: translateY(1px); }
    }

    /* both arms move a bit, like negotiating link */
    .left-arm { animation: armSwayLeft 2.8s ease-in-out infinite; transform-origin: 0px 70px; }
    @keyframes armSwayLeft {
      0%, 100% { transform: rotate(2deg); }
      50%      { transform: rotate(-2deg); }
    }

    /* Right arm + wire rotate around CH1 via translate+rotate */
    .right-arm-assembly { animation: connectWiggle 2.2s ease-in-out infinite; }
    @keyframes connectWiggle {
      0%, 100% { transform: translate(37px,146px) rotate(-3deg); }
      35%      { transform: translate(37px,146px) rotate(-8deg); }
      70%      { transform: translate(37px,146px) rotate(-1deg); }
    }

    .left-claw-L, .left-claw-R, .right-claw-L, .right-claw-R {
      animation: clawSoft 3s ease-in-out infinite;
      transform-origin: center;
    }
    @keyframes clawSoft {
      0%, 100% { transform: translateY(0); }
      50%      { transform: translateY(1px); }
    }

    .grid-line {
      stroke: #071820;
      stroke-width: 0.7;
      opacity: 0.35;
    }

    /* Nodes and link line */
    .node {
      fill: #021820;
      stroke: #00d4d4;
      stroke-width: 1.5;
      rx: 4;
      filter: url(#glow);
    }
    .node-label {
      font-family: "Courier New", monospace;
      font-size: 6px;
      fill: #aafefe;
    }

    .link-line {
      stroke: #00d4d4;
      stroke-width: 2;
      stroke-linecap: round;
      opacity: 0.8;
    }

    /* packets moving along link */
    .packet {
      fill: #00ffdd;
      filter: url(#glow);
      opacity: 0;
    }

    .pkt1 { animation: packetMove 1.6s linear infinite; }
    .pkt2 { animation: packetMove 1.6s linear infinite 0.4s; }
    .pkt3 { animation: packetMoveReverse 1.6s linear infinite 0.2s; }

    /* left to right */
    @keyframes packetMove {
      0%   { transform: translateX(0);   opacity: 0; }
      10%  { opacity: 1; }
      80%  { transform: translateX(68px); opacity: 1; }
      100% { transform: translateX(68px); opacity: 0; }
    }
    /* right to left */
    @keyframes packetMoveReverse {
      0%   { transform: translateX(68px); opacity: 0; }
      10%  { opacity: 1; }
      80%  { transform: translateX(0);    opacity: 1; }
      100% { transform: translateX(0);    opacity: 0; }
    }

    /* small protocol text */
    .proto-text {
      font-family: "Courier New", monospace;
      font-size: 6px;
      fill: #55ffee;
      opacity: 0.7;
      animation: protoBlink 1.8s ease-in-out infinite;
    }
    @keyframes protoBlink {
      0%, 100% { opacity: 0.2; }
      40%      { opacity: 0.9; }
      70%      { opacity: 0.5; }
    }

    .connect-text {
      font-family: "Courier New", monospace;
      font-size: 7px;
      fill: #00ffdd;
      opacity: 0.8;
      letter-spacing: 1px;
    }

    .ch1-led { animation: ch1Blink 1.8s ease-in-out infinite; }
    @keyframes ch1Blink {
      0%, 100% { fill: #f4b400; }
      40%      { fill: #ffeb80; }
      65%      { fill: #f4b400; }
    }

    .probe-wire {
      fill: none;
      stroke: #222;
      stroke-width: 3;
      stroke-linecap: round;
    }
  </style>

  <g class="hover-body">
    <!-- Thruster flames -->
    <path class="flame" d="M 38 168 L 52 168 L 45 192 Z" fill="url(#fire-grad)"/>
    <path class="flame" d="M 188 168 L 202 168 L 195 192 Z" fill="url(#fire-grad)"/>

    <!-- HANDLE -->
    <g class="handle">
      <path d="M 12 28 L 12 5 Q 12 -2 19 -2 L 30 -2" fill="none" stroke="#b0b0b0" stroke-width="5" stroke-linecap="round"/>
      <path d="M 228 28 L 228 5 Q 228 -2 221 -2 L 210 -2" fill="none" stroke="#b0b0b0" stroke-width="5" stroke-linecap="round"/>
      <rect x="30" y="-5" width="180" height="7" rx="3.5" fill="#00b8d4"/>
    </g>
    
    <!-- Main body -->
    <rect x="8" y="28" width="224" height="120" rx="5" fill="#f8f8f8" stroke="#c0c0c0" stroke-width="1"/>

    <!-- Black bezel -->
    <rect x="12" y="32" width="180" height="104" rx="3" fill="#1a1a1a"/>
    
    <!-- Tektronix branding -->
    <text x="16" y="36" font-family="Arial" font-size="5" font-weight="bold" fill="#777" letter-spacing="0.5">Tektronix</text>
    <text x="140" y="36" font-family="Arial" font-size="3.5" fill="#555">4 SERIES MSO</text>
    
    <!-- Screen frame -->
    <rect x="18" y="38" width="158" height="88" rx="2" fill="#02080b"/>

    <!-- Screen content -->
    <g clip-path="url(#screenClip)">
      <!-- subtle grid -->
      <g>
        <line class="grid-line" x1="18" y1="58" x2="176" y2="58"/>
        <line class="grid-line" x1="18" y1="78" x2="176" y2="78"/>
        <line class="grid-line" x1="18" y1="98" x2="176" y2="98"/>
        <line class="grid-line" x1="18" y1="118" x2="176" y2="118"/>

        <line class="grid-line" x1="46" y1="38" x2="46" y2="126"/>
        <line class="grid-line" x1="74" y1="38" x2="74" y2="126"/>
        <line class="grid-line" x1="102" y1="38" x2="102" y2="126"/>
        <line class="grid-line" x1="130" y1="38" x2="130" y2="126"/>
        <line class="grid-line" x1="158" y1="38" x2="158" y2="126"/>
      </g>

      <!-- Two nodes and link -->
      <!-- left node (HOST) -->
      <rect class="node" x="34" y="66" width="42" height="24" rx="4"/>
      <text x="40" y="81" class="node-label">HOST</text>
      <!-- right node (SCOPE) -->
      <rect class="node" x="118" y="66" width="42" height="24" rx="4"/>
      <text x="123" y="81" class="node-label">SCOPE</text>

      <!-- link between nodes -->
      <line class="link-line" x1="76" y1="78" x2="118" y2="78"/>

      <!-- packets on link: base at left, move to right and back -->
      <circle class="packet pkt1" cx="80" cy="78" r="2.3"/>
      <circle class="packet pkt2" cx="80" cy="78" r="2.3"/>
      <circle class="packet pkt3" cx="80" cy="78" r="2.3"/>

      <!-- status text -->
      <text x="34" y="60" class="connect-text">LINK NEGOTIATION</text>
      <text x="34" y="104" class="proto-text">LAN / USB / VXI-11</text>
    </g>

    <!-- Right side control panel -->
    <rect x="194" y="32" width="36" height="104" rx="3" fill="#f0f0f0" stroke="#ccc" stroke-width="1"/>
    
    <!-- TRIGGER section -->
    <rect x="197" y="35" width="30" height="7" rx="1" fill="#333"/>
    <text x="212" y="40" font-family="Arial" font-size="4" fill="#0f0" text-anchor="middle">TRIGGER</text>
    
    <!-- Top knob -->
    <text x="212" y="48" font-family="Arial" font-size="3" fill="#555" text-anchor="middle">Level</text>
    <circle cx="212" cy="56" r="7" fill="#e0e0e0" stroke="#999" stroke-width="1"/>
    <circle cx="212" cy="56" r="2.5" fill="#888"/>
    
    <!-- VERTICAL section -->
    <rect x="197" y="66" width="30" height="6" rx="1" fill="#444"/>
    <text x="212" y="70.5" font-family="Arial" font-size="3.5" fill="#fff" text-anchor="middle">VERTICAL</text>
    
    <!-- Channel buttons -->
    <circle cx="203" cy="80" r="4" fill="#222" stroke="#f4b400" stroke-width="2"/> 
    <circle cx="221" cy="80" r="4" fill="#222" stroke="#00c8c8" stroke-width="2"/> 
    <circle cx="203" cy="92" r="4" fill="#222" stroke="#e06666" stroke-width="2"/> 
    <circle cx="221" cy="92" r="4" fill="#222" stroke="#8e7cc3" stroke-width="2"/>
    
    <!-- HORIZONTAL section -->
    <rect x="197" y="100" width="30" height="6" rx="1" fill="#444"/>
    <text x="212" y="104.5" font-family="Arial" font-size="3" fill="#fff" text-anchor="middle">HORIZONTAL</text>
    
    <!-- Bottom knob -->
    <text x="212" y="112" font-family="Arial" font-size="3" fill="#555" text-anchor="middle">Scale</text>
    <circle cx="212" cy="120" r="8" fill="#e0e0e0" stroke="#999" stroke-width="1"/>
    <circle cx="212" cy="120" r="3" fill="#888"/>
    
    <!-- Function buttons -->
    <rect x="197" y="130" width="14" height="5" rx="1" fill="#4a4"/>
    <rect x="213" y="130" width="14" height="5" rx="1" fill="#48f"/>

    <!-- Bottom channel inputs bar -->
    <rect x="8" y="138" width="224" height="16" rx="2" fill="#e8e8e8"/>
    
    <!-- CH1 -->
    <g id="ch1-input" transform="translate(25, 140)">
      <rect x="0" y="0" width="24" height="12" rx="2" fill="#3a3a3a"/>
      <circle class="ch1-led" cx="12" cy="6" r="5" fill="#222" stroke="#f4b400" stroke-width="2"/>
    </g>
    <!-- CH2 -->
    <g transform="translate(60, 140)">
      <rect x="0" y="0" width="24" height="12" rx="2" fill="#3a3a3a"/>
      <circle cx="12" cy="6" r="5" fill="#222" stroke="#00c8c8" stroke-width="2"/>
    </g>
    <!-- CH3 -->
    <g transform="translate(95, 140)">
      <rect x="0" y="0" width="24" height="12" rx="2" fill="#3a3a3a"/>
      <circle cx="12" cy="6" r="5" fill="#222" stroke="#e06666" stroke-width="2"/>
    </g>
    <!-- CH4 -->
    <g transform="translate(130, 140)">
      <rect x="0" y="0" width="24" height="12" rx="2" fill="#3a3a3a"/>
      <circle cx="12" cy="6" r="5" fill="#222" stroke="#8e7cc3" stroke-width="2"/>
    </g>
    
    <!-- Aux In -->
    <circle cx="190" cy="146" r="4" fill="#222" stroke="#666" stroke-width="1"/>

    <!-- Feet -->
    <rect x="35" y="154" width="24" height="14" rx="3" fill="#f0f0f0" stroke="#c0c0c0" stroke-width="1"/>
    <rect x="181" y="154" width="24" height="14" rx="3" fill="#f0f0f0" stroke="#c0c0c0" stroke-width="1"/>

    <!-- Right arm assembly: translated and rotated around CH1 (37,146) via keyframes -->
    <g class="right-arm-assembly">
      <!-- probe wire: local coords, CH1 is (0,0) -->
      <path class="probe-wire" d="M 0 0 Q 53 4 113 19 Q 173 32 205 8" />

      <!-- right arm in local coordinates (global minus 37,146) -->
      <g class="right-arm">
        <circle cx="203" cy="-76" r="10" fill="#00aad2" stroke="#0088aa" stroke-width="1"/>
        <rect x="195" y="-74" width="16" height="24" rx="4"
              fill="url(#metal-grad)" stroke="#999" stroke-width="1"/>
        <rect x="197" y="-52" width="14" height="20" rx="3"
              fill="#fff" stroke="#999" stroke-width="1"/>
        <ellipse cx="205" cy="-30" rx="8" ry="5" fill="#e8e8e8" stroke="#999" stroke-width="1"/>
        
        <g class="right-claw-L">
          <path d="M 199 -30 Q 192 -20 195 -10" fill="none" stroke="#e0e0e0" stroke-width="5" stroke-linecap="round"/>
          <circle cx="195" cy="-10" r="4" fill="#2d5a5a"/>
        </g>
        <g class="right-claw-R">
          <path d="M 211 -30 Q 218 -20 215 -10" fill="none" stroke="#e0e0e0" stroke-width="5" stroke-linecap="round"/>
          <circle cx="215" cy="-10" r="4" fill="#2d5a5a"/>
        </g>
        
        <!-- probe body -->
        <rect x="200" y="-26" width="10" height="30" rx="2" fill="#555"/>
        <rect x="202" y="2" width="6" height="6" rx="1" fill="#333"/>
        <line x1="205" y1="8" x2="205" y2="19" stroke="#aaa" stroke-width="2" stroke-linecap="round"/>
      </g>
    </g>

    <!-- LEFT ARM -->
    <g class="left-arm">
      <circle cx="0" cy="70" r="10" fill="#00aad2" stroke="#0088aa" stroke-width="1"/>
      <rect x="-8" y="72" width="16" height="24" rx="4"
            fill="url(#metal-grad)" stroke="#999" stroke-width="1" transform="rotate(15 0 75)"/>
      <rect x="-10" y="94" width="14" height="20" rx="3"
            fill="#fff" stroke="#999" stroke-width="1" transform="rotate(-8 -3 100)"/>
      <ellipse cx="-2" cy="116" rx="8" ry="5" fill="#e8e8e8" stroke="#999" stroke-width="1"/>
      
      <g class="left-claw-L">
        <path d="M -8 116 Q -15 126 -12 136" fill="none" stroke="#e0e0e0" stroke-width="5" stroke-linecap="round"/>
        <circle cx="-12" cy="136" r="4" fill="#2d5a5a"/>
      </g>
      <g class="left-claw-R">
        <path d="M 4 116 Q 11 126 8 136" fill="none" stroke="#e0e0e0" stroke-width="5" stroke-linecap="round"/>
        <circle cx="8" cy="136" r="4" fill="#2d5a5a"/>
      </g>
    </g>
  </g>
</svg>
