<svg xmlns="http://www.w3.org/2000/svg" viewBox="-25 -20 300 270" width="300" height="270">
  <defs>
    <clipPath id="screenClip">
      <rect x="18" y="38" width="158" height="88" rx="2"/>
    </clipPath>
    <filter id="glow">
      <feGaussianBlur stdDeviation="1.5" result="coloredBlur"/>
      <feMerge>
        <feMergeNode in="coloredBlur"/>
        <feMergeNode in="SourceGraphic"/>
      </feMerge>
    </filter>
    <linearGradient id="metal-grad" x1="0%" y1="0%" x2="0%" y2="100%">
      <stop offset="0%" stop-color="#fff"/>
      <stop offset="100%" stop-color="#ccc"/>
    </linearGradient>
    <linearGradient id="fire-grad" x1="0%" y1="0%" x2="0%" y2="100%">
      <stop offset="0%" stop-color="#00ffff"/> 
      <stop offset="100%" stop-color="#0099dd" stop-opacity="0"/>
    </linearGradient>
    <linearGradient id="data-grad" x1="0%" y1="0%" x2="100%" y2="0%">
      <stop offset="0%" stop-color="#00ff88"/>
      <stop offset="50%" stop-color="#00ffdd"/>
      <stop offset="100%" stop-color="#00ff88"/>
    </linearGradient>
  </defs>

  <style>
    /* Focused hover */
    .hover-body { animation: hoverQuery 2.2s ease-in-out infinite; }
    @keyframes hoverQuery {
      0%, 100% { transform: translateY(0px); } 
      50% { transform: translateY(-3px); }
    }

    /* Active thrusters */
    .flame { animation: thrust 0.5s ease-in-out infinite alternate; transform-origin: center top; }
    @keyframes thrust {
      0% { transform: scaleY(0.8); opacity: 0.35; }
      100% { transform: scaleY(1.1); opacity: 0.75; }
    }

    .handle { 
      animation: handleBreathe 2.2s ease-in-out infinite; 
      transform-origin: 120px 28px;
    }
    @keyframes handleBreathe {
      0%, 100% { transform: translateY(0); }
      50% { transform: translateY(1px); }
    }

    /* Left arm at rest */
    .left-arm-assembly { 
      animation: armSwayLeft 3s ease-in-out infinite; 
      transform-origin: 0px 70px;
    }
    @keyframes armSwayLeft {
      0%, 100% { transform: rotate(0deg); }
      50% { transform: rotate(2deg); }
    }

    /* Right arm - probe extended, receiving data */
    .right-arm-assembly { 
      animation: probeReceive 1.5s ease-in-out infinite; 
      transform-origin: 37px 146px;
    }
    @keyframes probeReceive {
      0%, 100% { transform: translate(37px, 146px) rotate(-3deg); }
      50% { transform: translate(37px, 146px) rotate(-5deg); }
    }

    /* Claws */
    .left-claw-L, .left-claw-R, .right-claw-L, .right-claw-R {
      animation: clawSoft 3s ease-in-out infinite;
      transform-origin: center;
    }
    @keyframes clawSoft {
      0%, 100% { transform: translateY(0); }
      50% { transform: translateY(1px); }
    }

    .grid-line {
      stroke: #0d2520;
      stroke-width: 0.7;
      opacity: 0.35;
    }

    /* Focused attentive eyes */
    .query-eye {
      fill: #00ffaa;
      filter: url(#glow);
      animation: eyeFocus 1.5s ease-in-out infinite;
    }
    @keyframes eyeFocus {
      0%, 100% { transform: scale(1); }
      50% { transform: scale(1.05); }
    }

    /* Data stream characters scrolling */
    .data-stream {
      font-family: "Courier New", monospace;
      font-size: 5px;
      fill: #00dd88;
      filter: url(#glow);
    }
    .stream1 { animation: streamScroll 3s linear infinite; }
    .stream2 { animation: streamScroll 3s linear infinite 0.5s; }
    .stream3 { animation: streamScroll 3s linear infinite 1s; }
    @keyframes streamScroll {
      0% { transform: translateX(160px); opacity: 0; }
      10% { opacity: 0.8; }
      90% { opacity: 0.8; }
      100% { transform: translateX(-50px); opacity: 0; }
    }

    /* Query command box */
    .query-box {
      fill: rgba(0, 30, 20, 0.9);
      stroke: #00ffaa;
      stroke-width: 1;
      filter: url(#glow);
    }
    .query-text {
      font-family: "Courier New", monospace;
      font-size: 6px;
      fill: #00ffdd;
    }
    .query-cursor {
      fill: #00ffaa;
      animation: cursorBlink 0.6s steps(1) infinite;
    }
    @keyframes cursorBlink {
      0%, 50% { opacity: 1; }
      51%, 100% { opacity: 0; }
    }

    /* Response indicator */
    .response-arrow {
      fill: #00ff88;
      filter: url(#glow);
      animation: arrowPulse 1s ease-in-out infinite;
    }
    @keyframes arrowPulse {
      0%, 100% { transform: translateX(0); opacity: 0.5; }
      50% { transform: translateX(3px); opacity: 1; }
    }

    /* Data packets traveling along wire */
    .data-packet {
      fill: #00ffdd;
      filter: url(#glow);
      opacity: 0;
    }
    .pkt1 { animation: packetFlow 1.2s ease-in-out infinite; }
    .pkt2 { animation: packetFlow 1.2s ease-in-out infinite 0.3s; }
    .pkt3 { animation: packetFlow 1.2s ease-in-out infinite 0.6s; }
    @keyframes packetFlow {
      0% { offset-distance: 0%; opacity: 0; }
      10% { opacity: 1; }
      90% { opacity: 1; }
      100% { offset-distance: 100%; opacity: 0; }
    }

    /* CH1 receiving indicator */
    .ch1-receive {
      animation: ch1Pulse 0.8s ease-in-out infinite;
    }
    @keyframes ch1Pulse {
      0%, 100% { stroke: #f4b400; fill: #222; }
      50% { stroke: #ffdd44; fill: #332200; }
    }

    /* Status text */
    .status-text {
      font-family: "Courier New", monospace;
      font-size: 5px;
      fill: #00aa88;
      opacity: 0.8;
    }

    .probe-wire {
      fill: none;
      stroke: #222;
      stroke-width: 3;
      stroke-linecap: round;
    }

    /* Wire glow effect during transfer */
    .wire-glow {
      fill: none;
      stroke: #00ff88;
      stroke-width: 5;
      stroke-linecap: round;
      opacity: 0;
      animation: wireTransfer 1.2s ease-in-out infinite;
    }
    @keyframes wireTransfer {
      0%, 100% { opacity: 0; }
      50% { opacity: 0.3; }
    }
  </style>

  <g class="hover-body">
    <!-- Thruster flames -->
    <path class="flame" d="M 38 168 L 52 168 L 45 192 Z" fill="url(#fire-grad)"/>
    <path class="flame" d="M 188 168 L 202 168 L 195 192 Z" fill="url(#fire-grad)"/>

    <!-- HANDLE -->
    <g class="handle">
      <path d="M 12 28 L 12 5 Q 12 -2 19 -2 L 30 -2" fill="none" stroke="#b0b0b0" stroke-width="5" stroke-linecap="round"/>
      <path d="M 228 28 L 228 5 Q 228 -2 221 -2 L 210 -2" fill="none" stroke="#b0b0b0" stroke-width="5" stroke-linecap="round"/>
      <rect x="30" y="-5" width="180" height="7" rx="3.5" fill="#00b8d4"/>
    </g>
    
    <!-- Main body -->
    <rect x="8" y="28" width="224" height="120" rx="5" fill="#f8f8f8" stroke="#c0c0c0" stroke-width="1"/>

    <!-- Black bezel -->
    <rect x="12" y="32" width="180" height="104" rx="3" fill="#1a1a1a"/>
    
    <!-- Tektronix branding -->
    <text x="16" y="36" font-family="Arial" font-size="5" font-weight="bold" fill="#777" letter-spacing="0.5">Tektronix</text>
    <text x="140" y="36" font-family="Arial" font-size="3.5" fill="#00ff88">QUERY MODE</text>
    
    <!-- Screen frame -->
    <rect x="18" y="38" width="158" height="88" rx="2" fill="#0a1210"/>

    <!-- Screen content -->
    <g clip-path="url(#screenClip)">
      <!-- Grid -->
      <g>
        <line class="grid-line" x1="18" y1="58" x2="176" y2="58"/>
        <line class="grid-line" x1="18" y1="78" x2="176" y2="78"/>
        <line class="grid-line" x1="18" y1="98" x2="176" y2="98"/>
        <line class="grid-line" x1="18" y1="118" x2="176" y2="118"/>
        <line class="grid-line" x1="46" y1="38" x2="46" y2="126"/>
        <line class="grid-line" x1="74" y1="38" x2="74" y2="126"/>
        <line class="grid-line" x1="102" y1="38" x2="102" y2="126"/>
        <line class="grid-line" x1="130" y1="38" x2="130" y2="126"/>
        <line class="grid-line" x1="158" y1="38" x2="158" y2="126"/>
      </g>

      <!-- Focused eyes -->
      <g transform="translate(0, 3)">
        <ellipse class="query-eye" cx="72" cy="62" rx="9" ry="11"/>
        <ellipse class="query-eye" cx="122" cy="62" rx="9" ry="11"/>
        <!-- Pupils - focused straight ahead -->
        <circle cx="72" cy="62" r="4" fill="#0a1210"/>
        <circle cx="122" cy="62" r="4" fill="#0a1210"/>
        <!-- Highlights -->
        <circle cx="70" cy="60" r="2" fill="#fff" opacity="0.6"/>
        <circle cx="120" cy="60" r="2" fill="#fff" opacity="0.6"/>
      </g>

      <!-- Query command box -->
      <rect class="query-box" x="28" y="82" width="138" height="18" rx="2"/>
      <text x="32" y="93" class="query-text">*IDN?</text>
      <rect class="query-cursor" x="58" y="85" width="6" height="11"/>
      
      <!-- Response arrow -->
      <polygon class="response-arrow" points="30,100 38,104 30,108"/>
      
      <!-- Data stream lines -->
      <text class="data-stream stream1" x="30" y="113">TEKTRONIX,MSO46B,C012345,CF:91.1CT</text>
      <text class="data-stream stream2" x="30" y="118">0x4D534F3436422C433031323334</text>
      <text class="data-stream stream3" x="30" y="123">ACK:OK STATUS:READY BUFFER:CLEAR</text>

      <!-- Status -->
      <text x="130" y="50" class="status-text">RX: 1.2KB</text>
    </g>

    <!-- Right side control panel -->
    <rect x="194" y="32" width="36" height="104" rx="3" fill="#f0f0f0" stroke="#ccc" stroke-width="1"/>
    
    <!-- TRIGGER section -->
    <rect x="197" y="35" width="30" height="7" rx="1" fill="#333"/>
    <text x="212" y="40" font-family="Arial" font-size="4" fill="#0f0" text-anchor="middle">TRIGGER</text>
    
    <!-- Top knob -->
    <text x="212" y="48" font-family="Arial" font-size="3" fill="#555" text-anchor="middle">Level</text>
    <circle cx="212" cy="56" r="7" fill="#e0e0e0" stroke="#999" stroke-width="1"/>
    <circle cx="212" cy="56" r="2.5" fill="#888"/>
    
    <!-- VERTICAL section -->
    <rect x="197" y="66" width="30" height="6" rx="1" fill="#444"/>
    <text x="212" y="70.5" font-family="Arial" font-size="3.5" fill="#fff" text-anchor="middle">VERTICAL</text>
    
    <!-- Channel buttons -->
    <circle cx="203" cy="80" r="4" fill="#222" stroke="#f4b400" stroke-width="2"/> 
    <circle cx="221" cy="80" r="4" fill="#222" stroke="#00c8c8" stroke-width="2"/> 
    <circle cx="203" cy="92" r="4" fill="#222" stroke="#e06666" stroke-width="2"/> 
    <circle cx="221" cy="92" r="4" fill="#222" stroke="#8e7cc3" stroke-width="2"/>
    
    <!-- HORIZONTAL section -->
    <rect x="197" y="100" width="30" height="6" rx="1" fill="#444"/>
    <text x="212" y="104.5" font-family="Arial" font-size="3" fill="#fff" text-anchor="middle">HORIZONTAL</text>
    
    <!-- Bottom knob -->
    <text x="212" y="112" font-family="Arial" font-size="3" fill="#555" text-anchor="middle">Scale</text>
    <circle cx="212" cy="120" r="8" fill="#e0e0e0" stroke="#999" stroke-width="1"/>
    <circle cx="212" cy="120" r="3" fill="#888"/>
    
    <!-- Function buttons -->
    <rect x="197" y="130" width="14" height="5" rx="1" fill="#4a4"/>
    <rect x="213" y="130" width="14" height="5" rx="1" fill="#48f"/>
    
    <!-- Bottom channel inputs bar -->
    <rect x="8" y="138" width="224" height="16" rx="2" fill="#e8e8e8"/>
    
    <!-- CH1 - receiving data -->
    <g id="ch1-input" transform="translate(25, 140)">
      <rect x="0" y="0" width="24" height="12" rx="2" fill="#3a3a3a"/>
      <circle class="ch1-receive" cx="12" cy="6" r="5" fill="#222" stroke="#f4b400" stroke-width="2"/>
    </g>
    <!-- CH2 -->
    <g transform="translate(60, 140)">
      <rect x="0" y="0" width="24" height="12" rx="2" fill="#3a3a3a"/>
      <circle cx="12" cy="6" r="5" fill="#222" stroke="#00c8c8" stroke-width="2"/>
    </g>
    <!-- CH3 -->
    <g transform="translate(95, 140)">
      <rect x="0" y="0" width="24" height="12" rx="2" fill="#3a3a3a"/>
      <circle cx="12" cy="6" r="5" fill="#222" stroke="#e06666" stroke-width="2"/>
    </g>
    <!-- CH4 -->
    <g transform="translate(130, 140)">
      <rect x="0" y="0" width="24" height="12" rx="2" fill="#3a3a3a"/>
      <circle cx="12" cy="6" r="5" fill="#222" stroke="#8e7cc3" stroke-width="2"/>
    </g>
    
    <!-- Aux In -->
    <circle cx="190" cy="146" r="4" fill="#222" stroke="#666" stroke-width="1"/>

    <!-- Feet -->
    <rect x="35" y="154" width="24" height="14" rx="3" fill="#f0f0f0" stroke="#c0c0c0" stroke-width="1"/>
    <rect x="181" y="154" width="24" height="14" rx="3" fill="#f0f0f0" stroke="#c0c0c0" stroke-width="1"/>

    <!-- Right arm assembly (wire + arm) -->
    <g class="right-arm-assembly">
      <!-- Wire glow effect -->
      <path class="wire-glow" d="M 0 0 Q 53 4 113 19 Q 173 32 205 8" />
      <!-- probe wire from CH1 (0,0 in local coords) to probe tip -->
      <path class="probe-wire" d="M 0 0 Q 53 4 113 19 Q 173 32 205 8" />
      
      <!-- Data packets along wire path -->
      <circle class="data-packet pkt1" r="4">
        <animateMotion dur="1.2s" repeatCount="indefinite" path="M 0 0 Q 53 4 113 19 Q 173 32 205 8"/>
      </circle>
      <circle class="data-packet pkt2" r="3">
        <animateMotion dur="1.2s" repeatCount="indefinite" begin="0.3s" path="M 0 0 Q 53 4 113 19 Q 173 32 205 8"/>
      </circle>
      <circle class="data-packet pkt3" r="3">
        <animateMotion dur="1.2s" repeatCount="indefinite" begin="0.6s" path="M 0 0 Q 53 4 113 19 Q 173 32 205 8"/>
      </circle>

      <!-- right arm in local coords -->
      <g class="right-arm">
        <circle cx="203" cy="-76" r="10" fill="#00aad2" stroke="#0088aa" stroke-width="1"/>
        <rect x="195" y="-74" width="16" height="24" rx="4" fill="url(#metal-grad)" stroke="#999" stroke-width="1" transform="rotate(-15 203 -62)"/>
        <rect x="197" y="-52" width="14" height="20" rx="3" fill="#fff" stroke="#999" stroke-width="1" transform="rotate(8 204 -42)"/>
        <ellipse cx="205" cy="-30" rx="8" ry="5" fill="#e8e8e8" stroke="#999" stroke-width="1"/>
        
        <g class="right-claw-L">
          <path d="M 199 -30 Q 192 -20 195 -10" fill="none" stroke="#e0e0e0" stroke-width="5" stroke-linecap="round"/>
          <circle cx="195" cy="-10" r="4" fill="#2d5a5a"/>
        </g>
        <g class="right-claw-R">
          <path d="M 211 -30 Q 218 -20 215 -10" fill="none" stroke="#e0e0e0" stroke-width="5" stroke-linecap="round"/>
          <circle cx="215" cy="-10" r="4" fill="#2d5a5a"/>
        </g>
        
        <!-- Probe body -->
        <rect x="200" y="-26" width="10" height="30" rx="2" fill="#555"/>
        <rect x="202" y="2" width="6" height="6" rx="1" fill="#333"/>
        <line x1="205" y1="8" x2="205" y2="19" stroke="#aaa" stroke-width="2" stroke-linecap="round"/>
      </g>
    </g>

    <!-- LEFT ARM -->
    <g class="left-arm-assembly">
      <circle cx="0" cy="70" r="10" fill="#00aad2" stroke="#0088aa" stroke-width="1"/>
      <rect x="-8" y="72" width="16" height="24" rx="4" fill="url(#metal-grad)" stroke="#999" stroke-width="1" transform="rotate(15 0 75)"/>
      <rect x="-10" y="94" width="14" height="20" rx="3" fill="#fff" stroke="#999" stroke-width="1" transform="rotate(-8 -3 100)"/>
      <ellipse cx="-2" cy="116" rx="8" ry="5" fill="#e8e8e8" stroke="#999" stroke-width="1"/>
      
      <g class="left-claw-L">
        <path d="M -8 116 Q -15 126 -12 136" fill="none" stroke="#e0e0e0" stroke-width="5" stroke-linecap="round"/>
        <circle cx="-12" cy="136" r="4" fill="#2d5a5a"/>
      </g>
      <g class="left-claw-R">
        <path d="M 4 116 Q 11 126 8 136" fill="none" stroke="#e0e0e0" stroke-width="5" stroke-linecap="round"/>
        <circle cx="8" cy="136" r="4" fill="#2d5a5a"/>
      </g>
    </g>
  </g>
</svg>
