<svg xmlns="http://www.w3.org/2000/svg" viewBox="-25 -20 300 270" width="300" height="270">
  <defs>
    <clipPath id="screenClip">
      <rect x="18" y="38" width="158" height="88" rx="2"/>
    </clipPath>
    <filter id="glow">
      <feGaussianBlur stdDeviation="1.5" result="coloredBlur"/>
      <feMerge>
        <feMergeNode in="coloredBlur"/>
        <feMergeNode in="SourceGraphic"/>
      </feMerge>
    </filter>
    <linearGradient id="metal-grad" x1="0%" y1="0%" x2="0%" y2="100%">
      <stop offset="0%" stop-color="#fff"/>
      <stop offset="100%" stop-color="#ccc"/>
    </linearGradient>
    <linearGradient id="fire-grad" x1="0%" y1="0%" x2="0%" y2="100%">
      <stop offset="0%" stop-color="#ffaa55"/> 
      <stop offset="100%" stop-color="#884400" stop-opacity="0"/>
    </linearGradient>
    <linearGradient id="coffee-grad" x1="0%" y1="0%" x2="0%" y2="100%">
      <stop offset="0%" stop-color="#8B4513"/>
      <stop offset="100%" stop-color="#5D3A1A"/>
    </linearGradient>
  </defs>

  <style>
    /* Slightly drowsy hover */
    .hover-body { animation: hoverCoffee 3s ease-in-out infinite; }
    @keyframes hoverCoffee {
      0%, 100% { transform: translateY(0px); } 
      50% { transform: translateY(-2px); }
    }

    /* Warm thrusters */
    .flame { animation: thrustWarm 0.6s ease-in-out infinite alternate; transform-origin: center top; }
    @keyframes thrustWarm {
      0% { transform: scaleY(0.7); opacity: 0.3; }
      100% { transform: scaleY(1.0); opacity: 0.6; }
    }

    .handle { 
      animation: handleBreathe 3s ease-in-out infinite; 
    }
    @keyframes handleBreathe {
      0%, 100% { transform: translateY(0); }
      50% { transform: translateY(1px); }
    }

    /* Left arm - holding coffee up */
    .left-arm-assembly { 
      animation: holdCoffee 3s ease-in-out infinite; 
      transform-origin: 0px 70px;
    }
    @keyframes holdCoffee {
      0%, 100% { transform: rotate(-35deg); }
      50% { transform: rotate(-30deg); }
    }

    /* Right arm relaxed */
    .right-arm-assembly { 
      animation: armRelax 3s ease-in-out infinite; 
      transform-origin: 37px 146px;
    }
    @keyframes armRelax {
      0%, 100% { transform: translate(37px, 146px) rotate(3deg); }
      50% { transform: translate(37px, 146px) rotate(5deg); }
    }

    .left-claw-L, .left-claw-R {
      animation: clawHold 3s ease-in-out infinite;
    }
    @keyframes clawHold {
      0%, 100% { transform: scale(1); }
      50% { transform: scale(0.98); }
    }

    .right-claw-L, .right-claw-R {
      animation: clawSoft 3s ease-in-out infinite;
    }
    @keyframes clawSoft {
      0%, 100% { transform: translateY(0); }
      50% { transform: translateY(1px); }
    }

    .grid-line {
      stroke: #2a1a10;
      stroke-width: 0.7;
      opacity: 0.3;
    }

    /* Sleepy/waking eyes */
    .coffee-eye {
      fill: #ffcc66;
      filter: url(#glow);
    }
    .eye-group {
      animation: eyeWake 4s ease-in-out infinite;
    }
    @keyframes eyeWake {
      0%, 100% { transform: scaleY(0.5); }
      50% { transform: scaleY(0.9); }
    }

    /* Coffee cup */
    .cup-body {
      fill: #fff;
      stroke: #ddd;
      stroke-width: 1;
    }
    .cup-coffee {
      fill: url(#coffee-grad);
    }
    .cup-handle {
      fill: none;
      stroke: #fff;
      stroke-width: 4;
    }

    /* Steam rising */
    .steam {
      fill: none;
      stroke: #fff;
      stroke-width: 2;
      stroke-linecap: round;
      opacity: 0;
    }
    .steam1 { animation: steamRise 2s ease-out infinite; }
    .steam2 { animation: steamRise 2s ease-out infinite 0.5s; }
    .steam3 { animation: steamRise 2s ease-out infinite 1s; }
    @keyframes steamRise {
      0% { transform: translateY(0); opacity: 0; }
      20% { opacity: 0.6; }
      100% { transform: translateY(-25px); opacity: 0; }
    }

    /* Loading bar (caffeine level) */
    .caffeine-bg {
      fill: #332211;
      stroke: #aa8866;
      stroke-width: 1;
    }
    .caffeine-fill {
      fill: #aa6622;
      animation: caffeineLoad 4s ease-in-out infinite;
    }
    @keyframes caffeineLoad {
      0% { width: 20; }
      50% { width: 80; }
      100% { width: 20; }
    }

    /* LOADING text */
    .loading-text {
      font-family: "Courier New", monospace;
      font-size: 6px;
      fill: #aa8855;
    }

    .probe-wire {
      fill: none;
      stroke: #222;
      stroke-width: 3;
      stroke-linecap: round;
    }

    /* Handle bar warm */
    .handle-bar-coffee {
      animation: barWarm 3s ease-in-out infinite;
    }
    @keyframes barWarm {
      0%, 100% { fill: #00b8d4; }
      50% { fill: #dd8844; }
    }

    /* Coffee cup label */
    .cup-label {
      font-family: "Arial", sans-serif;
      font-size: 5px;
      fill: #8B4513;
    }
  </style>

  <g class="hover-body">
    <!-- Thruster flames - warm orange -->
    <path class="flame" d="M 38 168 L 52 168 L 45 188 Z" fill="url(#fire-grad)"/>
    <path class="flame" d="M 188 168 L 202 168 L 195 188 Z" fill="url(#fire-grad)"/>

    <!-- HANDLE -->
    <g class="handle">
      <path d="M 12 28 L 12 5 Q 12 -2 19 -2 L 30 -2" fill="none" stroke="#b0b0b0" stroke-width="5" stroke-linecap="round"/>
      <path d="M 228 28 L 228 5 Q 228 -2 221 -2 L 210 -2" fill="none" stroke="#b0b0b0" stroke-width="5" stroke-linecap="round"/>
      <rect class="handle-bar-code" x="30" y="-5" width="180" height="7" rx="3.5" fill="#00b8d4"/>
    </g>
    
    <!-- Main body -->
    <rect x="8" y="28" width="224" height="120" rx="5" fill="#f8f8f8" stroke="#c0c0c0" stroke-width="1"/>

    <!-- Black bezel -->
    <rect x="12" y="32" width="180" height="104" rx="3" fill="#1a1a1a"/>
    
    <!-- Tektronix branding -->
    <text x="16" y="36" font-family="Arial" font-size="5" font-weight="bold" fill="#777" letter-spacing="0.5">Tektronix</text>
    <text x="130" y="36" font-family="Arial" font-size="3.5" fill="#aa8855">☕ COFFEE BREAK</text>
    
    <!-- Screen frame -->
    <rect x="18" y="38" width="158" height="88" rx="2" fill="#0f0a05"/>

    <!-- Screen content -->
    <g clip-path="url(#screenClip)">
      <!-- Warm grid -->
      <g>
        <line class="grid-line" x1="18" y1="58" x2="176" y2="58"/>
        <line class="grid-line" x1="18" y1="78" x2="176" y2="78"/>
        <line class="grid-line" x1="18" y1="98" x2="176" y2="98"/>
        <line class="grid-line" x1="18" y1="118" x2="176" y2="118"/>
        <line class="grid-line" x1="46" y1="38" x2="46" y2="126"/>
        <line class="grid-line" x1="74" y1="38" x2="74" y2="126"/>
        <line class="grid-line" x1="102" y1="38" x2="102" y2="126"/>
        <line class="grid-line" x1="130" y1="38" x2="130" y2="126"/>
        <line class="grid-line" x1="158" y1="38" x2="158" y2="126"/>
      </g>

      <!-- Sleepy/waking eyes -->
      <g class="eye-group" transform="translate(0, 8)">
        <ellipse class="coffee-eye" cx="72" cy="62" rx="10" ry="12"/>
        <ellipse class="coffee-eye" cx="122" cy="62" rx="10" ry="12"/>
        
        <!-- Droopy eyelids -->
        <ellipse cx="72" cy="56" rx="11" ry="8" fill="#0f0a05"/>
        <ellipse cx="122" cy="56" rx="11" ry="8" fill="#0f0a05"/>
        
        <!-- Pupils -->
        <circle cx="72" cy="64" r="4" fill="#0f0a05"/>
        <circle cx="122" cy="64" r="4" fill="#0f0a05"/>
        
        <!-- Highlights -->
        <circle cx="70" cy="62" r="1.5" fill="#fff" opacity="0.4"/>
        <circle cx="120" cy="62" r="1.5" fill="#fff" opacity="0.4"/>
      </g>

      <!-- Caffeine loading bar -->
      <rect class="caffeine-bg" x="40" y="95" width="100" height="10" rx="3"/>
      <rect class="caffeine-fill" x="42" y="97" height="6" rx="2">
        <animate attributeName="width" values="20;80;20" dur="4s" repeatCount="indefinite"/>
      </rect>
      
      <text class="loading-text" x="50" y="115">CAFFEINE LOADING...</text>
    </g>

    <!-- Right side control panel -->
    <rect x="194" y="32" width="36" height="104" rx="3" fill="#f0f0f0" stroke="#ccc" stroke-width="1"/>
    
    <!-- TRIGGER section -->
    <rect x="197" y="35" width="30" height="7" rx="1" fill="#333"/>
    <text x="212" y="40" font-family="Arial" font-size="4" fill="#0f0" text-anchor="middle">TRIGGER</text>
    
    <!-- Knobs and buttons... -->
    <text x="212" y="48" font-family="Arial" font-size="3" fill="#555" text-anchor="middle">Level</text>
    <circle cx="212" cy="56" r="7" fill="#e0e0e0" stroke="#999" stroke-width="1"/>
    <circle cx="212" cy="56" r="2.5" fill="#888"/>
    
    <rect x="197" y="66" width="30" height="6" rx="1" fill="#444"/>
    <text x="212" y="70.5" font-family="Arial" font-size="3.5" fill="#fff" text-anchor="middle">VERTICAL</text>
    
    <circle cx="203" cy="80" r="4" fill="#222" stroke="#f4b400" stroke-width="2"/> 
    <circle cx="221" cy="80" r="4" fill="#222" stroke="#00c8c8" stroke-width="2"/> 
    <circle cx="203" cy="92" r="4" fill="#222" stroke="#e06666" stroke-width="2"/> 
    <circle cx="221" cy="92" r="4" fill="#222" stroke="#8e7cc3" stroke-width="2"/>
    
    <rect x="197" y="100" width="30" height="6" rx="1" fill="#444"/>
    <text x="212" y="104.5" font-family="Arial" font-size="3" fill="#fff" text-anchor="middle">HORIZONTAL</text>
    
    <text x="212" y="112" font-family="Arial" font-size="3" fill="#555" text-anchor="middle">Scale</text>
    <circle cx="212" cy="120" r="8" fill="#e0e0e0" stroke="#999" stroke-width="1"/>
    <circle cx="212" cy="120" r="3" fill="#888"/>
    
    <rect x="197" y="130" width="14" height="5" rx="1" fill="#4a4"/>
    <rect x="213" y="130" width="14" height="5" rx="1" fill="#48f"/>
    
    <!-- Bottom bar -->
    <rect x="8" y="138" width="224" height="16" rx="2" fill="#e8e8e8"/>
    <g transform="translate(25, 140)">
      <rect x="0" y="0" width="24" height="12" rx="2" fill="#3a3a3a"/>
      <circle cx="12" cy="6" r="5" fill="#222" stroke="#f4b400" stroke-width="2"/>
    </g>
    <g transform="translate(60, 140)">
      <rect x="0" y="0" width="24" height="12" rx="2" fill="#3a3a3a"/>
      <circle cx="12" cy="6" r="5" fill="#222" stroke="#00c8c8" stroke-width="2"/>
    </g>
    <g transform="translate(95, 140)">
      <rect x="0" y="0" width="24" height="12" rx="2" fill="#3a3a3a"/>
      <circle cx="12" cy="6" r="5" fill="#222" stroke="#e06666" stroke-width="2"/>
    </g>
    <g transform="translate(130, 140)">
      <rect x="0" y="0" width="24" height="12" rx="2" fill="#3a3a3a"/>
      <circle cx="12" cy="6" r="5" fill="#222" stroke="#8e7cc3" stroke-width="2"/>
    </g>
    <circle cx="190" cy="146" r="4" fill="#222" stroke="#666" stroke-width="1"/>

    <!-- Feet -->
    <rect x="35" y="154" width="24" height="14" rx="3" fill="#f0f0f0" stroke="#c0c0c0" stroke-width="1"/>
    <rect x="181" y="154" width="24" height="14" rx="3" fill="#f0f0f0" stroke="#c0c0c0" stroke-width="1"/>

    <!-- Right arm -->
    <g class="right-arm-assembly">
      <path class="probe-wire" d="M 0 0 Q 53 4 113 19 Q 173 32 205 8" />
      <g>
        <circle cx="203" cy="-76" r="10" fill="#00aad2" stroke="#0088aa" stroke-width="1"/>
        <rect x="195" y="-74" width="16" height="24" rx="4" fill="url(#metal-grad)" stroke="#999" stroke-width="1" transform="rotate(-15 203 -62)"/>
        <rect x="197" y="-52" width="14" height="20" rx="3" fill="#fff" stroke="#999" stroke-width="1" transform="rotate(8 204 -42)"/>
        <ellipse cx="205" cy="-30" rx="8" ry="5" fill="#e8e8e8" stroke="#999" stroke-width="1"/>
        <g class="right-claw-L">
          <path d="M 199 -30 Q 192 -20 195 -10" fill="none" stroke="#e0e0e0" stroke-width="5" stroke-linecap="round"/>
          <circle cx="195" cy="-10" r="4" fill="#2d5a5a"/>
        </g>
        <g class="right-claw-R">
          <path d="M 211 -30 Q 218 -20 215 -10" fill="none" stroke="#e0e0e0" stroke-width="5" stroke-linecap="round"/>
          <circle cx="215" cy="-10" r="4" fill="#2d5a5a"/>
        </g>
        <rect x="200" y="-26" width="10" height="30" rx="2" fill="#555"/>
        <rect x="202" y="2" width="6" height="6" rx="1" fill="#333"/>
        <line x1="205" y1="8" x2="205" y2="19" stroke="#aaa" stroke-width="2" stroke-linecap="round"/>
      </g>
    </g>

    <!-- LEFT ARM - holding COFFEE CUP -->
    <g class="left-arm-assembly">
      <circle cx="0" cy="70" r="10" fill="#00aad2" stroke="#0088aa" stroke-width="1"/>
      <rect x="-8" y="72" width="16" height="24" rx="4" fill="url(#metal-grad)" stroke="#999" stroke-width="1" transform="rotate(20 0 84)"/>
      <rect x="-10" y="94" width="14" height="20" rx="3" fill="#fff" stroke="#999" stroke-width="1" transform="rotate(-8 -3 104)"/>
      <ellipse cx="-2" cy="116" rx="8" ry="5" fill="#e8e8e8" stroke="#999" stroke-width="1"/>
      
      <!-- Claws holding cup -->
      <g class="left-claw-L">
        <path d="M -8 116 Q -14 124 -12 132" fill="none" stroke="#e0e0e0" stroke-width="5" stroke-linecap="round"/>
        <circle cx="-12" cy="132" r="4" fill="#2d5a5a"/>
      </g>
      <g class="left-claw-R">
        <path d="M 4 116 Q -2 124 0 132" fill="none" stroke="#e0e0e0" stroke-width="5" stroke-linecap="round"/>
        <circle cx="0" cy="132" r="4" fill="#2d5a5a"/>
      </g>
      
      <!-- COFFEE CUP -->
      <g transform="translate(-6, 115)">
        <!-- Cup body -->
        <path class="cup-body" d="M -12 5 L -10 30 Q -10 35 -5 35 L 5 35 Q 10 35 10 30 L 12 5 Z"/>
        <!-- Coffee inside -->
        <path class="cup-coffee" d="M -10 10 L -9 28 Q -9 32 -5 32 L 5 32 Q 9 32 9 28 L 10 10 Z"/>
        <!-- Cup handle -->
        <path class="cup-handle" d="M 10 12 Q 18 12 18 20 Q 18 28 10 28"/>
        <!-- Steam -->
        <path class="steam steam1" d="M -5 2 Q -7 -5 -3 -10"/>
        <path class="steam steam2" d="M 0 0 Q 2 -6 -2 -12"/>
        <path class="steam steam3" d="M 5 2 Q 7 -5 3 -10"/>
      </g>
    </g>
  </g>
</svg>
